/* XPM */
static const char *pic_036_xpm[] = {
/* columns rows colors chars-per-pixel */
"20 19 3 1",
"  c MediumBlue",
". c gray100",
"X c None",
/* pixels */
"XXXXXXXXXXXXXXXXXXXX",
"XXXXXXXXXXXXXXXXXXXX",
"XX                XX",
"XX          ....  XX",
"XX         .    . XX",
"XX         .    . XX",
"XX         .    . XX",
"XX          .   . XX",
"XX          .   . XX",
"XX         .   .  XX",
"XX        .   .   XX",
"XX  ...  .   .    XX",
"XX .   ..   .     XX",
"XX .       .      XX",
"XX .      .       XX",
"XX .     .        XX",
"XX  .....         XX",
"XX                XX",
"XXXXXXXXXXXXXXXXXXXX"
};
