/* XPM */
static const char *pic_037_xpm[] = {
/* columns rows colors chars-per-pixel */
"20 19 3 1",
"  c black",
". c gray100",
"X c None",
/* pixels */
"XXXXXXXXXXXXXXXXXXXX",
"XXXXXXXXXXXXXXXXXXXX",
"X......XX....XX....X",
"X.     .X.  .XX.  .X",
"X.      ..  .XX.  .X",
"X.  ..   ..  ..  .XX",
"X.  .X.  ..  ..  .XX",
"X.  .X.  .X.    .XXX",
"X.  .X.  .X.    .XXX",
"X.  .X.  .XX.  .XXXX",
"X.  .X.  .XX.  .XXXX",
"X.  .X.  .X.    .XXX",
"X.  .X.  .X.    .XXX",
"X.  .X.  ..  ..  .XX",
"X.  ..   ..  ..  .XX",
"X.      ..  .XX.  .X",
"X.     .X.  .XX.  .X",
"X......XX....XX....X",
"XXXXXXXXXXXXXXXXXXXX"
};
