/* XPM */
static const char *pic_039_xpm[] = {
/* columns rows colors chars-per-pixel */
"20 19 2 1",
"  c #5A5A5A",
". c None",
/* pixels */
"....................",
"....................",
"........   .........",
".......    .........",
".......    .........",
".......    ...  ....",
".......    ...  ....",
".......    ...  ....",
".....           ....",
".....           ....",
".....           ....",
".....           ....",
".......    ...  ....",
".......    ...  ....",
".......    ...  ....",
".......    .........",
".......    .........",
"........   .........",
"...................."
};
