/* XPM */
static const char *pic_042_xpm[] = {
/* columns rows colors chars-per-pixel */
"20 19 2 1",
"  c DeepSkyBlue",
". c None",
/* pixels */
"....................",
"....................",
"............ .......",
"...........  .......",
"....  ....   .......",
"....    ..   .......",
".....    .   .......",
"......      ..    ..",
"......           ...",
".......         ....",
"....         .......",
"...           ......",
"..    ..      ......",
"........  .    .....",
".......   ..    ....",
".......   ....  ....",
".......  ...........",
"....... ............",
"...................."
};
