/* XPM */
static const char *pic_045_xpm[] = {
/* columns rows colors chars-per-pixel */
"20 19 3 1",
"  c black",
". c yellow",
"X c None",
/* pixels */
"XXXXXXXXXXXXXXXXXXXX",
"XXXXXX XXXXXXXXXXXXX",
"XXXXXX XXXXXXXXXXXXX",
"XXXXXX XXX XXXXXXXXX",
"XXXXXX XX   XXXXXXXX",
"XXXXXX X     XXXXXXX",
"XXXXXX        XXXXXX",
"XXXXXX         XXXXX",
"XXXXX           XXXX",
"XXXX             XXX",
"XXXXXX ....... XXXXX",
"XXXXXX . ... . XXXXX",
"XXXXXX ... ... XXXXX",
"XXXXXX ... ... XXXXX",
"XXXXXX         XXXXX",
"XXXXXXXXXXXXXXXXXXXX",
"XXXXXXXXXXXXXXXXXXXX",
"XXXXXXXXXXXXXXXXXXXX",
"XXXXXXXXXXXXXXXXXXXX"
};
