/* XPM */
static const char *pic_057_xpm[] = {
/* columns rows colors chars-per-pixel */
"20 19 3 1",
"  c black",
". c gray100",
"X c None",
/* pixels */
"XXXXXXXXXXXXXXXXXXXX",
"XXXXXXXXXXXXXXXXXXXX",
"XX                XX",
"XX .............. XX",
"XX .............. XX",
"XX ....      .... XX",
"XX ...        ... XX",
"XX ...  ....  ... XX",
"XX ...  ....  ... XX",
"XX ...        ... XX",
"XX ....       ... XX",
"XX .........  ... XX",
"XX .........  ... XX",
"XX ...        ... XX",
"XX ...       .... XX",
"XX .............. XX",
"XX .............. XX",
"XX                XX",
"XXXXXXXXXXXXXXXXXXXX"
};
