/* XPM */
static const char *pic_072_xpm[] = {
/* columns rows colors chars-per-pixel */
"20 19 3 1",
"  c DeepSkyBlue",
". c gray100",
"X c None",
/* pixels */
"XXXXXXXXXXXXXXXXXXXX",
"XXXXXXXXXXXXXXXXXXXX",
"XX                XX",
"XX                XX",
"XX                XX",
"XX                XX",
"XX                XX",
"XX .              XX",
"XX .              XX",
"XX .              XX",
"XX . ..  ...... . XX",
"XX . .......... . XX",
"XX . ..  ...... . XX",
"XX .            . XX",
"XX .............. XX",
"XX .            . XX",
"XX .            . XX",
"XX                XX",
"XXXXXXXXXXXXXXXXXXXX"
};
