/* XPM */
static const char *pic_073_xpm[] = {
/* columns rows colors chars-per-pixel */
"20 19 3 1",
"  c DarkGreen",
". c yellow",
"X c None",
/* pixels */
"XXXXXXXXXXXXXXXXXXXX",
"XXXXXXXXXXXXXXXXXXXX",
"XXXXXXXXXXXXXXXXXXXX",
"X.................XX",
"X..     .   .   ..XX",
"XX... ... . . . .XXX",
"XX... ... ...   .XXX",
"XX... ... . . ...XXX",
"XXX.. ...   . ..XXXX",
"XXX.............XXXX",
"XXX.............XXXX",
"XXX...   .   ...XXXX",
"XXXX... .. . ..XXXXX",
"XXXX... ..   ..XXXXX",
"XXXX... .. ....XXXXX",
"XXXXX.   . ...XXXXXX",
"XXXXX.........XXXXXX",
"XXXXX.........XXXXXX",
"XXXXXXXXXXXXXXXXXXXX"
};
