/* XPM */
static const char *pic_092_xpm[] = {
/* columns rows colors chars-per-pixel */
"20 19 3 1",
"  c black",
". c yellow",
"X c None",
/* pixels */
"XXXXXXXXXXXXXXXXXXXX",
"XXXXXXXXXXXXXXXXXXXX",
"XXXXXXXXX  XXXXXXXXX",
"XXXXXXXX .. XXXXXXXX",
"XXXXXXXX .. XXXXXXXX",
"XXXXXXX .... XXXXXXX",
"XXXXXXX .... XXXXXXX",
"XXXXXX ...... XXXXXX",
"XXXXXX ...... XXXXXX",
"XXXXX ........ XXXXX",
"XXXXX ........ XXXXX",
"XXXX .   ..   . XXXX",
"XXXX . .. . ... XXXX",
"XXX .. .. .  ... XXX",
"XXX .. .. . .... XXX",
"XX ...   .. ..... XX",
"XX .............. XX",
"XX                XX",
"XXXXXXXXXXXXXXXXXXXX"
};
