/* XPM */
static const char *pic_113_xpm[] = {
/* columns rows colors chars-per-pixel */
"20 19 4 1",
"  c black",
". c DarkGreen",
"X c #00CD00",
"o c None",
/* pixels */
"oooooooooooooooooooo",
"oo o o oooooo o o oo",
"oo o o o.XX.o o o oo",
"oo                oo",
"oo o o o.XX.o o o oo",
"oo o o o.XX.o o o oo",
"oooooooo.XX.oooooooo",
"oooooooo.XX.oooooooo",
"oooooooo.XX.oooooooo",
"oooooooo.XX.oooooooo",
"ooooooo..XX..ooooooo",
"ooooooo.X..X.ooooooo",
"ooo  oo..XX..oo  ooo",
"oo oo o..XX..o oo oo",
"oo oooo.X..X.oo oooo",
"oo o  o.X..X.ooo ooo",
"oo oo o..XX..o oo oo",
"ooo  oo......oo  ooo",
"oooooooooooooooooooo"
};
