/* XPM */
static const char *pic_120_xpm[] = {
/* columns rows colors chars-per-pixel */
"20 19 2 1",
"  c black",
". c None",
/* pixels */
"....................",
"....................",
"....................",
".    ............  .",
"..    ..........  ..",
"...    ........  ...",
"....    ......  ....",
".....    ....  .....",
"......    ..  ......",
".......   .  .......",
".......  .   .......",
"......  ..    ......",
".....  ....    .....",
"....  ......    ....",
"...  ........    ...",
"..  ..........    ..",
".  ............    .",
"....................",
"...................."
};
