/* XPM */
static const char *busy_icon[] = {
/* columns rows colors chars-per-pixel */
"16 16 130 2",
"   c #000000",
".  c #0a0803",
"X  c #1d1808",
"o  c #151322",
"O  c #181621",
"+  c #1c1a21",
"@  c #221b03",
"#  c #2a1d06",
"$  c #221e20",
"%  c #26211f",
"&  c #2e271f",
"*  c #342b00",
"=  c #392e07",
"-  c #30291f",
";  c #383300",
":  c #3f3a00",
">  c #242121",
",  c #3d322c",
"<  c #433c00",
"1  c #573f00",
"2  c #583f03",
"3  c #553f1a",
"4  c #583c12",
"5  c #623700",
"6  c #623c03",
"7  c #444000",
"8  c #5a4602",
"9  c #54471c",
"0  c #604a03",
"q  c #6d4700",
"w  c #6c4d00",
"e  c #635500",
"r  c #6f5402",
"t  c #6e5c1c",
"y  c #734901",
"u  c #725401",
"i  c #744c25",
"p  c #736401",
"a  c #7f6b00",
"s  c #7f7600",
"d  c #7f6029",
"f  c #75684b",
"g  c #7f6e46",
"h  c #776d58",
"j  c #7c6e53",
"k  c #7f7153",
"l  c #7f7458",
"z  c #ae8811",
"x  c #b19510",
"c  c #c39b0a",
"v  c #cd9d0d",
"b  c #ceb50b",
"n  c #ea9533",
"m  c #f9b900",
"M  c #fbbc19",
"N  c #d6a85e",
"B  c #e9ab4b",
"V  c #f5bc5b",
"C  c #f9c200",
"Z  c #f6d600",
"A  c #fcd201",
"S  c #ffdc00",
"D  c #ffe400",
"F  c #ffe901",
"G  c #f9ca72",
"H  c #bebca7",
"J  c #bdbca9",
"K  c #d7bc87",
"L  c #c1bda7",
"P  c #c1bfaa",
"I  c #c1beb0",
"U  c #c5c3a3",
"Y  c #c4c1ac",
"T  c #cfc9a3",
"R  c #c2c1bb",
"E  c #cfcab0",
"W  c #cccabc",
"Q  c #d1c6a6",
"!  c #d5c6aa",
"~  c #d0caa5",
"^  c #d4cbaa",
"/  c #d1cfbe",
"(  c #d3d2ac",
")  c #d9d2ad",
"_  c #dbdaaf",
"`  c #d5d3b6",
"'  c #dad2b6",
"]  c #d8d4be",
"[  c #dddcb1",
"{  c #ded8bb",
"}  c #fad380",
"|  c #e0ddb4",
" . c #e3ddbb",
".. c #e9ddbe",
"X. c #f7d5ac",
"o. c #e1e0b5",
"O. c #e5e3ba",
"+. c #eae2be",
"@. c #eae8be",
"#. c #cecbc5",
"$. c #cfcec8",
"%. c #d7d3c2",
"&. c #dad5c1",
"*. c #dedacd",
"=. c #dbd9d4",
"-. c #e0dac5",
";. c #e3dfcd",
":. c #e8d5c2",
">. c #ebddc6",
",. c #e5e1c6",
"<. c #e7e2c9",
"1. c #ece2c3",
"2. c #eeeac3",
"3. c #e7e3d2",
"4. c #eae5d5",
"5. c #ebe6da",
"6. c #f1e6c6",
"7. c #f0e7ca",
"8. c #f0ebc4",
"9. c #fbe0c0",
"0. c #f2ecda",
"q. c #fde9d1",
"w. c #fff0c0",
"e. c #fff2cd",
"r. c #fff4d5",
"t. c #fff7df",
"y. c #fdf4e1",
"u. c #fff8e1",
"i. c white",
"p. c None",
/* pixels */
"p.p.p.p.p.M G X.9.} N , p.p.p.p.",
"p.p.p.m V y.i.i.i.i.u.K 9 p.p.p.",
"p.p.C n q.u.u.y.t.r.e.@.B 4 p.p.",
"p.. 5 i k j h l l j f g d 6   p.",
"p.* :.>.0.5.=.5.3.*.#.-.| ! # p.",
"p.1 >.1.7.;.$.<.<.%.R ' ! ! 2 > ",
"p.q >.+.+. .W O.| ` I ) ^ ! y > ",
"p.y 6.-.6.8.1.@.+.O.| [ ^ ) u - ",
"p.w 1.%.2.2.@.O.O.| [ [ Y ^ r & ",
"p.8 +.] ] @.O.O.| [ _ ( J T 8 % ",
"p.@ ..O./  .O.O.o.[ ( P L ~ ; + ",
"p.  *.o.{ W ` [ [ U P H ~ Y . + ",
"p.  . u a e * : 7 ; < s p X   p.",
"p.p.p.9 v A S A Z D F b 9 o $ p.",
"p.p.p.p.> t z c c x t $ + p.p.p.",
"p.p.p.p.p.p.+ $ $ + O $ p.p.p.p."
};
