/* XPM */
static const char * conference_xpm[] = {
"16 16 50 1",
" 	c None",
".	c #FCDC95",
"+	c #FCECD8",
"@	c #F3DAAB",
"#	c #F5B501",
"$	c #F4BE79",
"%	c #FBEDCD",
"&	c #FEF1D0",
"*	c #FAE9BF",
"=	c #F6CA76",
"-	c #EE9F01",
";	c #F6BB3F",
">	c #B4A26B",
",	c #FFE579",
"'	c #AF9C61",
")	c #FEE22E",
"!	c #EB9F02",
"~	c #F0A001",
"{	c #EBB804",
"]	c #B39B15",
"^	c #FFE91F",
"/	c #B19E12",
"(	c #F4DA03",
"_	c #E89E02",
":	c #F8B301",
"<	c #B49900",
"[	c #FEEC00",
"}	c #FFF200",
"|	c #FDF300",
"1	c #C1B100",
"2	c #ECB002",
"3	c #EFB204",
"4	c #AD9300",
"5	c #E2DC00",
"6	c #FEFC00",
"7	c #ECEB00",
"8	c #9C8C00",
"9	c #EEC802",
"0	c #EEC001",
"a	c #9C8901",
"b	c #BBB300",
"c	c #968D00",
"d	c #DFC801",
"e	c #DFB207",
"f	c #D8B407",
"g	c #EBBD19",
"h	c #F1B620",
"i	c #C99901",
"j	c #EBA101",
"k	c #E0C007",
"  .+@           ",
"#$%&*=          ",
"-;>,')!         ",
"~{]^/(_   .+@   ",
":<[}|12 #$%&*=  ",
"3456789 -;>,')! ",
" 0abcd  ~{]^/(_ ",
"  efg.+@h<[}|12 ",
"   #$%&*=i56789 ",
"   -;>,')jabcd  ",
"   ~{]^/(_efk   ",
"   :<[}|12      ",
"   3456789      ",
"    0abcd       ",
"     efk        ",
"                "};
