/* XPM */
static const char * link_xpm[] = {
"16 16 6 1",
" 	c None",
".	c #000000",
"+	c #757575",
"@	c #AFAFAF",
"#	c #DDDDDD",
"$	c #FFFFFF",
"                ",
"                ",
"                ",
"                ",
" .......        ",
".+@#$#@+.       ",
".@............. ",
".$.  . +@#$#@+. ",
".@............. ",
".+@#$#@+.       ",
" .......        ",
"                ",
"                ",
"                ",
"                ",
"                "};
