/* XPM */
static const char *offline_icon[] = {
/* columns rows colors chars-per-pixel */
"16 16 114 2",
"   c gray22",
".  c #3a3a3a",
"X  c gray23",
"o  c #3c3c3c",
"O  c gray24",
"+  c #3f3f3f",
"@  c gray25",
"#  c #414141",
"$  c #434343",
"%  c gray27",
"&  c gray28",
"*  c #484848",
"=  c gray29",
"-  c gray32",
";  c gray36",
":  c #5d5d5d",
">  c gray38",
",  c #626262",
"<  c gray39",
"1  c #676767",
"2  c #686868",
"3  c #6c6c6c",
"4  c #6d6d6d",
"5  c gray44",
"6  c #727272",
"7  c gray45",
"8  c #747474",
"9  c #767676",
"0  c #777777",
"q  c #7e7e7e",
"w  c #818181",
"e  c #838383",
"r  c #848484",
"t  c gray52",
"y  c gray53",
"u  c #898989",
"i  c gray54",
"p  c #8e8e8e",
"a  c gray57",
"s  c #929292",
"d  c gray59",
"f  c #989898",
"g  c gray60",
"h  c #9b9b9b",
"j  c gray62",
"k  c #9f9f9f",
"l  c gray63",
"z  c #a5a5a5",
"x  c gray65",
"c  c gray66",
"v  c DarkGray",
"b  c #aaaaaa",
"n  c #acacac",
"m  c #aeaeae",
"M  c #afafaf",
"N  c gray69",
"B  c #b1b1b1",
"V  c #b2b2b2",
"C  c gray70",
"Z  c gray71",
"A  c #b6b6b6",
"S  c gray72",
"D  c #b9b9b9",
"F  c #bcbcbc",
"G  c gray74",
"H  c gray",
"J  c gray75",
"K  c #c1c1c1",
"L  c gray76",
"P  c #c3c3c3",
"I  c #c5c5c5",
"U  c #c6c6c6",
"Y  c gray78",
"T  c #c8c8c8",
"R  c #cacaca",
"E  c #cbcbcb",
"W  c gray80",
"Q  c #cdcdcd",
"!  c #cecece",
"~  c gray81",
"^  c #d0d0d0",
"/  c gray82",
"(  c #d2d2d2",
")  c LightGray",
"_  c gray83",
"`  c #d5d5d5",
"'  c #d8d8d8",
"]  c gray85",
"[  c #dadada",
"{  c gray86",
"}  c gainsboro",
"|  c #dddddd",
" . c gray87",
".. c #dfdfdf",
"X. c gray88",
"o. c #e1e1e1",
"O. c #e2e2e2",
"+. c gray89",
"@. c gray90",
"#. c #e6e6e6",
"$. c gray91",
"%. c #ececec",
"&. c gray93",
"*. c #efefef",
"=. c #f1f1f1",
"-. c #f3f3f3",
";. c #f4f4f4",
":. c gray96",
">. c #f6f6f6",
",. c gray97",
"<. c #f8f8f8",
"1. c #f9f9f9",
"2. c white",
"3. c None",
/* pixels */
"3.3.3.3.3.Y ( +.@.[ A - 3.3.3.3.",
"3.3.3.L ~ >.2.2.2.2.>.Y : 3.3.3.",
"3.3.Y B %.<.<.<.>.>.-.-.G : 3.3.",
"3.( l Z $.@.+.%.%.@.[ +.~ j = 3.",
"3.Y g Z ..~ g @.@.R s ..Y B 9 3.",
"3.G x Z ( Z 7 ..+.Z 1 _ L G l % ",
"3.B Z G R M 7 ..+.Z 4 ( R L B % ",
"3.M L s Y _ ( ....[ _ [ j L A = ",
"3.A Y e L ....+.+.+.+.+.e G A = ",
"3.R Y i i @.+.@.@.+.@.L 7 ~ M # ",
"3.d L Y 7 A @.@.@.@._ e p [ e   ",
"3.% M ~ B 4 v @.@.Y q e [ A = # ",
"3.3.2 L ( M 7 e i 9 e ..R ,   3.",
"3.3.3., v ~ _ ~ ( [ ..Z ,   # 3.",
"3.3.3.3.# 9 d x x j 9 # O 3.3.3.",
"3.3.3.3.3.3.O # # O   # 3.3.3.3."
};
