/* XPM */
static const char *online_icon[]={
"16 16 97 2",
"Qt c None",
".U c #564f2c",
".R c #615b3d",
".3 c #655903",
"#y c #6c5e00",
".0 c #6e5c1c",
"#k c #706100",
"#o c #716800",
"#w c #787300",
"#f c #837500",
"#r c #857900",
"#i c #8a7c00",
".I c #8b7f5b",
"#c c #8e7500",
"#h c #957b00",
".G c #958b6e",
"#s c #978300",
".6 c #a58400",
"#C c #ae8811",
"#D c #b19510",
"## c #b39700",
"#u c #b3ab00",
"#E c #c39b0a",
".W c #c58c07",
".Q c #c5ac47",
".Z c #caab02",
".2 c #ccb715",
"#z c #cd9d0d",
"#B c #ceb50b",
"#l c #cfa007",
"#p c #cfc200",
".B c #d48207",
"#v c #d4d200",
".e c #d6a85e",
"#j c #d6c900",
".k c #d7bc87",
"#m c #d9a20a",
"#x c #d9b607",
".F c #dcc379",
"#d c #dfc500",
".C c #e07300",
".4 c #e1a204",
".u c #e58200",
".N c #e78b00",
"#q c #e8e800",
".s c #e9ab4b",
".m c #ea9533",
".v c #ea994b",
"#a c #eaad04",
".z c #ecd197",
".D c #ed9f24",
".7 c #edcc02",
".X c #ee9803",
".O c #efa100",
"#g c #efbc00",
".y c #f0dcb1",
".L c #f29b00",
".M c #f3b301",
"#n c #f4c600",
".g c #f5bc5b",
"#A c #f6d600",
".b c #f7d5ac",
".9 c #f7dc00",
"#b c #f9ad00",
".a c #f9ca72",
".5 c #faba00",
".d c #fad380",
".x c #fadea9",
".# c #fbbc19",
".l c #fbc402",
".c c #fbe0c0",
"#t c #fce300",
".f c #fdb700",
".Y c #fdcc00",
".t c #fdd300",
".V c #fdd322",
".n c #fde9d1",
".h c #fdf4e1",
".8 c #feda00",
"#e c #fefc00",
".P c #ffcd26",
".J c #ffd95f",
".E c #ffd974",
".A c #ffde8d",
".S c #ffe251",
".H c #ffe384",
".w c #ffe3a8",
"#. c #ffe900",
".T c #ffe94e",
".r c #ffe9b2",
".1 c #ffeb1c",
".q c #fff2cd",
".K c #fff300",
".p c #fff4d5",
".o c #fff7df",
".j c #fff8e1",
".i c #ffffff",
"QtQtQtQtQt.#.a.b.c.d.eQtQtQtQtQt",
"QtQtQt.f.g.h.i.i.i.i.j.k.fQtQtQt",
"QtQt.l.m.n.j.j.h.o.p.q.r.s.fQtQt",
"Qt.t.u.v.w.x.y.r.r.x.z.A.g.BQtQt",
"Qt.l.C.D.E.F.G.H.H.F.I.J.K.L.fQt",
"Qt.M.N.O.P.Q.R.S.T.Q.U.V.K.L.WQt",
"Qt.X.O.M.Y.Z.0.1.1.2.3.t.K.L.4Qt",
"Qt.X.5.6.7.8.9#.#.#..9#.##.L#aQt",
"Qt#b.5#c#d#..K.K.K#e.K.K#f#g#aQt",
"Qt.l.5#h#i#e#e#e#e#e#e#j#k.Y#lQt",
"Qt#m.f#n#o#p#e#e#e#e#q#r#s#tQtQt",
"QtQt#m.Y.Z.3#u#e#e#v#w#r#.#xQtQt",
"QtQt#m.M.8.Z#y#w#i#o#i#..7QtQtQt",
"QtQtQt#m#z.Y.8.t#A#.#.#BQtQtQtQt",
"QtQtQtQtQt#m#C#D#E#D#mQtQtQtQtQt",
"QtQtQtQtQtQtQtQtQtQtQtQtQtQtQtQt"};
