/* XPM */
static const char *repeater_xpm[]={
"16 16 3 1",
"# c None",
"a c #a0a0a0",
". c #ffff00",
".##.#######.##.#",
"#.#..#####..#.##",
"##.##.#a#.##.###",
"#######a########",
"##.##.#a#.##.###",
"#.#..##a##..#.##",
".##.##aaa##.##.#",
"#####aa#aa######",
"#####a#a#a######",
"#####aa#aa######",
"####a##a##a#####",
"####a#a#a#a#####",
"###aaa###aaa####",
"###aa#####aa####",
"##aa#######aa###",
"################"};
